<svg width="180" height="180" viewBox="0 0 180 180" fill="none" xmlns="http://www.w3.org/2000/svg">
<g clip-path="url(#clip0_89_272)">
<path d="M17.7563 151.154L16.1807 144.94C13.3872 143.756 10.5292 142.731 7.62016 141.869L7.42129 144.757L6.61478 141.575C3.00709 140.544 0.552734 140.09 0.552734 140.09C0.552734 140.09 3.86716 152.697 10.8212 162.335L18.9233 163.758L12.629 164.665C13.5038 165.718 14.4438 166.714 15.4436 167.649C25.5587 177.038 36.8251 181.346 40.6076 177.27C44.3901 173.195 39.2566 162.281 29.1416 152.893C26.0059 149.982 22.0667 147.646 18.1235 145.807L17.7563 151.154Z" fill="#F2F2F2"/>
<path d="M32.7399 144.405L34.6032 138.271C32.8239 135.814 30.9075 133.458 28.863 131.217L27.2 133.586L28.154 130.446C25.5982 127.699 23.7318 126.042 23.7318 126.042C23.7318 126.042 20.0535 138.547 21.0239 150.392L27.224 155.798L21.3656 153.322C21.5706 154.675 21.8605 156.014 22.2336 157.331C26.0394 170.597 33.4573 180.108 38.8017 178.575C44.1461 177.042 45.3935 165.045 41.5877 151.779C40.408 147.666 38.243 143.631 35.818 140.018L32.7399 144.405Z" fill="#F2F2F2"/>
<path d="M125.384 42.5071H124.402V15.5833C124.402 13.5369 123.999 11.5105 123.215 9.61985C122.432 7.72919 121.284 6.0113 119.837 4.56425C118.39 3.11721 116.672 1.96935 114.782 1.18621C112.891 0.403074 110.865 0 108.818 0H51.7749C47.6419 0 43.6782 1.64181 40.7558 4.56425C37.8333 7.48669 36.1915 11.4504 36.1915 15.5833V163.292C36.1915 165.338 36.5946 167.364 37.3777 169.255C38.1609 171.146 39.3087 172.864 40.7558 174.311C42.2028 175.758 43.9207 176.906 45.8114 177.689C47.702 178.472 49.7284 178.875 51.7749 178.875H108.818C112.951 178.875 116.915 177.233 119.837 174.311C122.76 171.388 124.401 167.424 124.401 163.292V61.6719H125.384L125.384 42.5071Z" fill="#E6E6E6"/>
<path d="M109.447 4.05273H102.002C102.344 4.89229 102.475 5.80318 102.382 6.70516C102.29 7.60713 101.977 8.4725 101.471 9.22502C100.965 9.97755 100.282 10.5941 99.4817 11.0204C98.6815 11.4468 97.7887 11.6697 96.882 11.6697H64.2025C63.2958 11.6696 62.4031 11.4466 61.6029 11.0203C60.8027 10.5939 60.1197 9.97734 59.6139 9.22482C59.1082 8.47231 58.7953 7.60697 58.7027 6.70504C58.6102 5.8031 58.7409 4.89225 59.0833 4.05273H52.1288C49.0424 4.05273 46.0823 5.27882 43.8999 7.46128C41.7174 9.64373 40.4913 12.6038 40.4913 15.6902V163.184C40.4913 166.271 41.7174 169.231 43.8999 171.413C46.0823 173.595 49.0424 174.822 52.1288 174.822H109.447C112.533 174.822 115.494 173.595 117.676 171.413C119.858 169.231 121.085 166.271 121.085 163.184V15.69C121.084 12.6036 119.858 9.64359 117.676 7.46119C115.493 5.27879 112.533 4.05273 109.447 4.05273Z" fill="white"/>
<path d="M73.484 62.8068C73.4839 61.7758 73.7553 60.763 74.2709 59.8702C74.7866 58.9775 75.5283 58.2363 76.4214 57.7213C75.5287 57.2057 74.516 56.9342 73.4851 56.9341C72.4543 56.934 71.4415 57.2053 70.5487 57.7206C69.6559 58.236 68.9145 58.9773 68.399 59.8701C67.8836 60.7628 67.6122 61.7755 67.6122 62.8064C67.6122 63.8373 67.8836 64.85 68.399 65.7428C68.9145 66.6355 69.6559 67.3768 70.5487 67.8922C71.4415 68.4076 72.4543 68.6788 73.4851 68.6787C74.516 68.6786 75.5287 68.4071 76.4214 67.8915C75.5283 67.3767 74.7866 66.6356 74.271 65.743C73.7553 64.8504 73.4839 63.8376 73.484 62.8068Z" fill="#CCCCCC"/>
<path d="M80.8664 62.8068C80.8662 61.7758 81.1375 60.763 81.6532 59.8702C82.1688 58.9774 82.9106 58.2363 83.8037 57.7213C82.911 57.2057 81.8984 56.9342 80.8675 56.9341C79.8366 56.934 78.8239 57.2053 77.931 57.7206C77.0382 58.236 76.2968 58.9773 75.7814 59.8701C75.2659 60.7628 74.9945 61.7755 74.9945 62.8064C74.9945 63.8373 75.2659 64.85 75.7814 65.7428C76.2968 66.6355 77.0382 67.3768 77.931 67.8922C78.8239 68.4076 79.8366 68.6788 80.8675 68.6787C81.8984 68.6786 82.911 68.4071 83.8037 67.8915C82.9106 67.3767 82.169 66.6356 81.6533 65.743C81.1377 64.8504 80.8662 63.8376 80.8664 62.8068Z" fill="#CCCCCC"/>
<path d="M88.081 68.6788C91.3242 68.6788 93.9533 66.0497 93.9533 62.8065C93.9533 59.5634 91.3242 56.9342 88.081 56.9342C84.8379 56.9342 82.2087 59.5634 82.2087 62.8065C82.2087 66.0497 84.8379 68.6788 88.081 68.6788Z" fill="#2C305E"/>
<path d="M97.8951 81.148H63.67C63.3442 81.1476 63.0318 81.018 62.8014 80.7876C62.571 80.5572 62.4414 80.2448 62.441 79.919V45.6939C62.4414 45.3681 62.571 45.0557 62.8014 44.8253C63.0318 44.595 63.3442 44.4653 63.67 44.465H97.8951C98.2209 44.4653 98.5333 44.595 98.7637 44.8253C98.9941 45.0557 99.1237 45.3681 99.124 45.6939V79.919C99.1237 80.2448 98.9941 80.5572 98.7637 80.7876C98.5333 81.018 98.2209 81.1476 97.8951 81.148ZM63.67 44.9568C63.4745 44.957 63.2871 45.0348 63.1489 45.173C63.0106 45.3113 62.9329 45.4987 62.9327 45.6942V79.9192C62.9329 80.1147 63.0106 80.3022 63.1489 80.4404C63.2871 80.5786 63.4745 80.6564 63.67 80.6566H97.8951C98.0906 80.6564 98.278 80.5786 98.4162 80.4404C98.5545 80.3022 98.6322 80.1147 98.6324 79.9192V45.6942C98.6322 45.4987 98.5545 45.3113 98.4162 45.173C98.278 45.0348 98.0906 44.957 97.8951 44.9568H63.67Z" fill="#CCCCCC"/>
<path d="M105.537 107.383H53.046V107.875H105.537V107.383Z" fill="#CCCCCC"/>
<path d="M54.7037 104.314C55.6192 104.314 56.3614 103.572 56.3614 102.656C56.3614 101.74 55.6192 100.998 54.7037 100.998C53.7882 100.998 53.046 101.74 53.046 102.656C53.046 103.572 53.7882 104.314 54.7037 104.314Z" fill="#2C305E"/>
<path d="M105.537 123.959H53.046V124.451H105.537V123.959Z" fill="#CCCCCC"/>
<path d="M54.7037 120.89C55.6192 120.89 56.3614 120.148 56.3614 119.232C56.3614 118.317 55.6192 117.575 54.7037 117.575C53.7882 117.575 53.046 118.317 53.046 119.232C53.046 120.148 53.7882 120.89 54.7037 120.89Z" fill="#2C305E"/>
<path d="M104.576 142.835H87.9878C87.7012 142.835 87.4265 142.721 87.2239 142.518C87.0213 142.316 86.9073 142.041 86.907 141.754V135.94C86.9073 135.654 87.0213 135.379 87.2239 135.176C87.4265 134.974 87.7012 134.86 87.9878 134.859H104.576C104.863 134.86 105.138 134.974 105.34 135.176C105.543 135.379 105.657 135.654 105.657 135.94V141.754C105.657 142.041 105.543 142.316 105.34 142.518C105.138 142.721 104.863 142.835 104.576 142.835Z" fill="#2C305E"/>
<path d="M60.1111 104.314C61.0266 104.314 61.7688 103.572 61.7688 102.656C61.7688 101.74 61.0266 100.998 60.1111 100.998C59.1955 100.998 58.4534 101.74 58.4534 102.656C58.4534 103.572 59.1955 104.314 60.1111 104.314Z" fill="#2C305E"/>
<path d="M65.5184 104.314C66.4339 104.314 67.1761 103.572 67.1761 102.656C67.1761 101.74 66.4339 100.998 65.5184 100.998C64.6029 100.998 63.8607 101.74 63.8607 102.656C63.8607 103.572 64.6029 104.314 65.5184 104.314Z" fill="#2C305E"/>
<path d="M60.1111 120.89C61.0266 120.89 61.7688 120.148 61.7688 119.232C61.7688 118.317 61.0266 117.575 60.1111 117.575C59.1955 117.575 58.4534 118.317 58.4534 119.232C58.4534 120.148 59.1955 120.89 60.1111 120.89Z" fill="#2C305E"/>
<path d="M65.5184 120.89C66.4339 120.89 67.1761 120.148 67.1761 119.232C67.1761 118.317 66.4339 117.575 65.5184 117.575C64.6029 117.575 63.8607 118.317 63.8607 119.232C63.8607 120.148 64.6029 120.89 65.5184 120.89Z" fill="#2C305E"/>
<path d="M178.779 179.43H6.33614C5.96699 179.43 5.66797 179.299 5.66797 179.137C5.66797 178.976 5.96699 178.845 6.33614 178.845H178.779C179.148 178.845 179.447 178.976 179.447 179.137C179.447 179.299 179.148 179.43 178.779 179.43Z" fill="#3F3D56"/>
<path d="M136.174 117.557C136.292 117.611 136.406 117.674 136.513 117.746L147.286 113.148L147.67 110.311L151.974 110.284L151.72 116.793L137.502 120.553C137.472 120.652 137.436 120.748 137.394 120.843C137.189 121.282 136.858 121.65 136.444 121.901C136.03 122.152 135.551 122.276 135.067 122.256C134.583 122.236 134.116 122.073 133.724 121.788C133.332 121.504 133.033 121.109 132.864 120.655C132.696 120.201 132.665 119.707 132.776 119.236C132.887 118.764 133.135 118.336 133.489 118.005C133.842 117.674 134.286 117.455 134.764 117.375C135.242 117.295 135.732 117.359 136.174 117.557Z" fill="#FFB8B8"/>
<path d="M153.54 176.534H150.596L149.195 165.177L153.541 165.177L153.54 176.534Z" fill="#FFB8B8"/>
<path d="M148.492 175.693H154.171V179.268H144.917C144.917 178.32 145.293 177.411 145.964 176.74C146.634 176.07 147.544 175.693 148.492 175.693Z" fill="#2F2E41"/>
<path d="M164.992 175.702L162.061 175.991L159.554 164.826L163.878 164.4L164.992 175.702Z" fill="#FFB8B8"/>
<path d="M159.886 175.36L165.537 174.803L165.888 178.362L156.678 179.269C156.632 178.802 156.679 178.33 156.815 177.88C156.951 177.431 157.175 177.013 157.472 176.65C157.77 176.287 158.137 175.986 158.551 175.765C158.965 175.544 159.419 175.406 159.886 175.36Z" fill="#2F2E41"/>
<path d="M154.36 98.2643C157.618 98.2643 160.259 95.6233 160.259 92.3653C160.259 89.1074 157.618 86.4664 154.36 86.4664C151.102 86.4664 148.461 89.1074 148.461 92.3653C148.461 95.6233 151.102 98.2643 154.36 98.2643Z" fill="#FFB8B8"/>
<path d="M149.937 174.238C149.684 174.238 149.439 174.149 149.245 173.987C149.051 173.825 148.921 173.599 148.877 173.35C147.353 164.889 142.371 137.226 142.252 136.46C142.249 136.442 142.248 136.424 142.248 136.406V134.344C142.248 134.269 142.271 134.195 142.315 134.134L142.973 133.212C143.005 133.168 143.046 133.132 143.093 133.106C143.141 133.08 143.194 133.065 143.248 133.062C147 132.886 159.288 132.371 159.882 133.113C160.478 133.858 160.267 136.116 160.219 136.562L160.221 136.608L165.742 171.913C165.785 172.194 165.716 172.482 165.549 172.712C165.382 172.943 165.131 173.099 164.85 173.146L161.401 173.714C161.145 173.755 160.882 173.703 160.66 173.567C160.439 173.43 160.273 173.219 160.195 172.971C159.128 169.564 155.552 158.1 154.313 153.664C154.305 153.636 154.287 153.612 154.263 153.596C154.239 153.58 154.209 153.573 154.18 153.577C154.152 153.581 154.125 153.596 154.106 153.618C154.087 153.64 154.077 153.668 154.077 153.698C154.139 157.926 154.289 168.714 154.34 172.44L154.346 172.842C154.348 173.113 154.249 173.376 154.067 173.578C153.885 173.779 153.634 173.905 153.363 173.931L150.038 174.233C150.004 174.236 149.971 174.238 149.937 174.238Z" fill="#2F2E41"/>
<path d="M150.616 100.584C149.586 101.196 148.97 102.32 148.617 103.465C147.962 105.584 147.568 107.774 147.444 109.988L147.07 116.617L142.446 134.19C146.454 137.582 148.766 136.811 154.161 134.037C159.557 131.263 160.174 134.962 160.174 134.962L161.253 120.009L162.794 103.669C162.448 103.253 162.056 102.876 161.626 102.547C160.202 101.439 158.544 100.669 156.778 100.294C155.012 99.9201 153.185 99.9515 151.433 100.386L150.616 100.584Z" fill="#2C305E"/>
<path d="M149.114 121.106C149.238 121.153 149.359 121.209 149.474 121.275L160.125 115.944L160.302 113.056L164.696 112.753L164.931 119.337L150.697 124.044C150.581 124.542 150.316 124.994 149.937 125.338C149.558 125.682 149.083 125.902 148.576 125.97C148.068 126.038 147.552 125.95 147.096 125.717C146.64 125.484 146.266 125.118 146.023 124.668C145.78 124.217 145.68 123.703 145.737 123.194C145.793 122.686 146.003 122.206 146.338 121.819C146.674 121.433 147.119 121.157 147.615 121.03C148.11 120.903 148.633 120.929 149.114 121.106Z" fill="#FFB8B8"/>
<path d="M162.717 103.744C165.338 104.669 165.799 114.69 165.799 114.69C162.716 112.994 159.016 115.769 159.016 115.769C159.016 115.769 158.246 113.148 157.321 109.757C157.041 108.803 157.008 107.794 157.224 106.823C157.439 105.853 157.897 104.953 158.554 104.207C158.554 104.207 160.096 102.818 162.717 103.744Z" fill="#2C305E"/>
<path d="M159.649 93.9254C158.914 93.3374 157.911 94.4062 157.911 94.4062L157.323 89.1142C157.323 89.1142 153.648 89.5545 151.296 88.9674C148.944 88.3802 148.577 91.0989 148.577 91.0989C148.456 90.0007 148.431 88.894 148.504 87.7915C148.65 86.4685 150.561 85.1455 153.942 84.2635C157.323 83.3814 159.087 87.2035 159.087 87.2035C161.439 88.3793 160.384 94.5134 159.649 93.9254Z" fill="#2F2E41"/>
</g>
<defs>
<clipPath id="clip0_89_272">
<rect width="178.895" height="179.43" fill="white" transform="translate(0.552734)"/>
</clipPath>
</defs>
</svg>
