<svg width="370" height="357" viewBox="0 0 370 357" fill="none" xmlns="http://www.w3.org/2000/svg">
<path d="M10.5127 206.339C6.68592 232.681 25.2177 261.219 34.9619 272.195H340.045C351.03 253.302 369.278 210.657 354.396 191.224C339.514 171.791 334.395 160.831 335.812 153.634C337.407 145.537 356.735 127.095 346.955 90.8205C337.175 54.5456 291.147 51.5946 269.355 54.6535C264.059 55.397 255.555 60.2475 222.051 50.3351C173.703 23.0009 141.086 18.1267 125.318 24.9643C106.892 30.3623 70.5727 57.2446 72.6987 121.589C18.4852 155.597 15.2963 173.411 10.5127 206.339Z" fill="#C1C2D8"/>
<g clip-path="url(#clip0_88_185)">
<path d="M19.6923 318.256L19.2831 317.494C24.7691 314.504 31.5967 310.784 35.1628 304.678C38.6782 298.66 38.7571 290.487 35.3687 283.349C32.4851 277.274 27.188 271.831 20.0503 267.609C18.6424 266.776 17.1645 265.987 15.7352 265.224C12.2804 263.379 8.70795 261.471 5.76228 258.764C1.70519 255.036 -1.36451 248.78 0.923444 243.208C1.6759 241.429 2.9082 239.899 4.48044 238.791C6.05268 237.682 7.90186 237.04 9.81801 236.937L9.86653 237.803C8.11111 237.897 6.41693 238.484 4.97626 239.499C3.53559 240.514 2.40612 241.916 1.71602 243.545C-0.410086 248.723 2.50692 254.6 6.34199 258.124C9.20712 260.757 12.7306 262.638 16.138 264.458C17.5754 265.226 19.0619 266.019 20.4859 266.862C27.7721 271.172 33.1869 276.743 36.1448 282.974C39.655 290.369 39.5629 298.854 35.9043 305.118C32.2166 311.432 25.2723 315.216 19.6923 318.256Z" fill="#F1F1F1"/>
<path d="M15.2706 241.506C19.428 241.506 22.7983 239.857 22.7983 237.822C22.7983 235.788 19.428 234.138 15.2706 234.138C11.1131 234.138 7.74283 235.788 7.74283 237.822C7.74283 239.857 11.1131 241.506 15.2706 241.506Z" fill="#F1F1F1"/>
<path d="M21.2928 265.779C25.4502 265.779 28.8205 264.129 28.8205 262.095C28.8205 260.06 25.4502 258.41 21.2928 258.41C17.1353 258.41 13.765 260.06 13.765 262.095C13.765 264.129 17.1353 265.779 21.2928 265.779Z" fill="#F1F1F1"/>
<path d="M7.52774 269.68C11.6852 269.68 15.0555 268.03 15.0555 265.996C15.0555 263.961 11.6852 262.311 7.52774 262.311C3.37029 262.311 0 263.961 0 265.996C0 268.03 3.37029 269.68 7.52774 269.68Z" fill="#F1F1F1"/>
<path d="M29.0356 290.051C33.193 290.051 36.5633 288.402 36.5633 286.367C36.5633 284.333 33.193 282.683 29.0356 282.683C24.8781 282.683 21.5078 284.333 21.5078 286.367C21.5078 288.402 24.8781 290.051 29.0356 290.051Z" fill="#F1F1F1"/>
<path d="M44.0911 290.051C48.2486 290.051 51.6188 288.402 51.6188 286.367C51.6188 284.333 48.2486 282.683 44.0911 282.683C39.9336 282.683 36.5634 284.333 36.5634 286.367C36.5634 288.402 39.9336 290.051 44.0911 290.051Z" fill="#F1F1F1"/>
<path d="M94.8371 228.302H112.604C113.817 221.239 113.817 214.019 112.604 206.956H94.8371C96.8387 213.928 96.8387 221.329 94.8371 228.302Z" fill="#2C305E"/>
<path d="M40.0081 313.04H44.8869L47.208 294.078L40.0072 294.078L40.0081 313.04Z" fill="#FFB7B7"/>
<path d="M38.7636 311.435L48.3718 311.435C49.9957 311.435 51.5534 312.085 52.7017 313.242C53.85 314.399 54.4951 315.968 54.4952 317.604V317.805L38.7639 317.805L38.7636 311.435Z" fill="#2F2E41"/>
<path d="M98.6234 312.879L103.361 311.704L101.118 292.733L94.1261 294.467L98.6234 312.879Z" fill="#FFB7B7"/>
<path d="M97.0343 311.62L106.364 309.306C107.941 308.915 109.608 309.171 110.997 310.018C112.386 310.865 113.385 312.234 113.773 313.823L113.821 314.017L98.5452 317.805L97.0343 311.62Z" fill="#2F2E41"/>
<path d="M37.0078 308.519L38.0213 303.294C38.0213 303.294 39.8869 283.119 53.2756 262.985L57.6336 241.113C57.6336 241.113 56.3393 224.558 68.8312 215.596L72.6825 212.923L86.1851 213.703L89.3037 230.907L95.5873 271.612C95.5873 271.612 97.2089 271.766 97.8169 276.473C99.0529 278.45 99.7841 280.704 99.9453 283.034C99.9453 283.034 103.161 291.973 104.022 298.555L103.921 304.995L97.1308 308.64L82.978 268.31L72.8553 245.763C72.8553 245.763 67.9832 261.649 60.5207 275.258C60.5207 275.258 50.2995 297.55 48.2575 302.079L46.0278 309.491L37.0078 308.519Z" fill="#2F2E41"/>
<path d="M82.1544 178.306C87.4846 178.306 91.8056 173.952 91.8056 168.581C91.8056 163.21 87.4846 158.856 82.1544 158.856C76.8242 158.856 72.5032 163.21 72.5032 168.581C72.5032 173.952 76.8242 178.306 82.1544 178.306Z" fill="#FFB7B7"/>
<path d="M82.1544 178.306C87.4846 178.306 91.8056 173.952 91.8056 168.581C91.8056 163.21 87.4846 158.856 82.1544 158.856C76.8242 158.856 72.5032 163.21 72.5032 168.581C72.5032 173.952 76.8242 178.306 82.1544 178.306Z" fill="#FFB8B8"/>
<path d="M68.8595 215.7L72.0455 207.681C69.7945 200.335 69.9325 192.455 72.4393 185.193L73.0488 184.688C78.3591 180.281 83.0199 181.083 87.345 186.474C88.0415 187.35 88.8561 188.124 89.7651 188.773C91.6727 190.121 94.699 197.448 90.7032 201.743L87.5065 220.532C87.8432 230.906 80.3724 226.999 68.8595 215.7Z" fill="#3F3D56"/>
<path d="M97.1499 226.777C97.0853 226.26 96.9091 225.764 96.6337 225.324C96.3583 224.884 95.9904 224.51 95.556 224.228C95.1215 223.946 94.6311 223.764 94.1192 223.694C93.6073 223.624 93.0864 223.668 92.5932 223.823L87.4208 217.575L82.8861 219.816L90.3136 228.536C90.6266 229.354 91.2265 230.027 91.9994 230.429C92.7723 230.831 93.6646 230.933 94.5073 230.716C95.3499 230.499 96.0843 229.978 96.5714 229.252C97.0585 228.526 97.2643 227.645 97.1499 226.777Z" fill="#FFB7B7"/>
<path d="M86.195 226.695L73.2438 207.135L76.9888 192.952C77.6062 191.672 78.7027 190.692 80.0373 190.226C81.3718 189.761 82.8353 189.848 84.1059 190.469C85.3766 191.091 86.3505 192.195 86.8135 193.539C87.2766 194.883 87.191 196.358 86.5755 197.639L82.0915 206.972L92.6093 222.17L86.195 226.695Z" fill="#CCCCCC"/>
<path d="M64.951 166.451C70.0647 166.451 74.2102 162.274 74.2102 157.121C74.2102 151.969 70.0647 147.791 64.951 147.791C59.8374 147.791 55.6919 151.969 55.6919 157.121C55.6919 162.274 59.8374 166.451 64.951 166.451Z" fill="#2F2E41"/>
<path d="M56.9645 164.847C58.163 165.72 59.5514 166.291 61.0137 166.512C62.476 166.733 63.9696 166.598 65.3695 166.119C66.7695 165.639 68.0351 164.828 69.0604 163.755C70.0858 162.681 70.8411 161.376 71.2631 159.948C71.1034 161.228 70.6821 162.46 70.0259 163.567C69.3696 164.675 68.4927 165.633 67.4503 166.382C66.408 167.13 65.223 167.653 63.97 167.917C62.7171 168.181 61.4235 168.18 60.1708 167.915C58.9182 167.649 57.7338 167.125 56.6923 166.375C55.6509 165.625 54.7751 164.666 54.1201 163.558C53.4652 162.45 53.0453 161.217 52.8872 159.937C52.729 158.657 52.8358 157.358 53.201 156.122C52.9936 157.783 53.2336 159.469 53.8958 161.004C54.558 162.539 55.6179 163.867 56.9645 164.847Z" fill="#2F2E41"/>
<path d="M93.5052 164.857C91.8888 161.941 91.2703 160.723 89.1861 158.95C87.3431 157.382 85.0761 156.922 83.2476 158.407C81.0845 157.466 78.6776 157.252 76.3845 157.799C74.0913 158.345 72.0343 159.622 70.5189 161.44C69.0034 163.258 68.1105 165.521 67.9727 167.891C67.8349 170.261 68.4595 172.613 69.7538 174.597C71.0482 176.581 72.9431 178.092 75.1573 178.904C77.3714 179.717 79.7866 179.788 82.044 179.107C84.3015 178.426 86.2808 177.03 87.6879 175.125C89.0951 173.221 89.855 170.91 89.8548 168.536C89.8532 168.119 89.8283 167.702 89.7802 167.288C91.3696 167.063 91.9158 165.082 93.5052 164.857Z" fill="#2F2E41"/>
<path d="M139.943 318.5H8.74565C8.63156 318.5 8.52215 318.454 8.44148 318.373C8.36081 318.292 8.31549 318.181 8.31549 318.066C8.31549 317.951 8.36081 317.841 8.44148 317.76C8.52215 317.678 8.63156 317.633 8.74565 317.633H139.943C140.058 317.633 140.167 317.678 140.248 317.76C140.328 317.841 140.374 317.951 140.374 318.066C140.374 318.181 140.328 318.292 140.248 318.373C140.167 318.454 140.058 318.5 139.943 318.5Z" fill="#CBCBCB"/>
<path d="M340.013 73.4541H339.612V62.3872C339.612 61.5461 339.447 60.7132 339.128 59.936C338.809 59.1589 338.34 58.4528 337.75 57.858C337.16 57.2632 336.459 56.7914 335.688 56.4695C334.916 56.1477 334.09 55.982 333.255 55.982H309.986C309.151 55.982 308.324 56.1476 307.553 56.4695C306.782 56.7914 306.081 57.2632 305.491 57.858C304.901 58.4528 304.432 59.1589 304.113 59.936C303.793 60.7131 303.629 61.546 303.629 62.3872V123.101C303.629 124.8 304.299 126.429 305.491 127.63C306.683 128.831 308.3 129.506 309.986 129.506H333.255C334.941 129.506 336.558 128.831 337.75 127.63C338.942 126.429 339.612 124.8 339.612 123.101V81.3317H340.013V73.4541Z" fill="#E5E5E5"/>
<path d="M333.246 57.6484H330.209C330.348 57.9935 330.402 58.3678 330.364 58.7386C330.326 59.1093 330.198 59.465 329.992 59.7743C329.786 60.0836 329.507 60.337 329.181 60.5123C328.854 60.6875 328.49 60.7792 328.12 60.7792H314.79C314.42 60.7792 314.056 60.6875 313.729 60.5123C313.403 60.337 313.124 60.0836 312.918 59.7743C312.712 59.465 312.584 59.1093 312.546 58.7386C312.509 58.3678 312.562 57.9934 312.702 57.6484H309.865C308.606 57.6484 307.398 58.1523 306.508 59.0494C305.618 59.9464 305.117 61.1631 305.117 62.4317V123.057C305.117 124.325 305.618 125.542 306.508 126.439C307.398 127.336 308.606 127.84 309.865 127.84H333.246C333.869 127.84 334.487 127.716 335.063 127.476C335.639 127.235 336.162 126.883 336.603 126.439C337.044 125.995 337.393 125.467 337.632 124.887C337.87 124.307 337.993 123.685 337.993 123.057V62.4317C337.993 61.8036 337.87 61.1816 337.632 60.6012C337.393 60.0209 337.044 59.4936 336.603 59.0494C336.162 58.6052 335.639 58.2529 335.063 58.0125C334.487 57.7721 333.869 57.6484 333.246 57.6484Z" fill="white"/>
<path d="M333.97 79.876H319.473V81.034H333.97V79.876Z" fill="#E5E5E5"/>
<path d="M333.97 83.5409H319.473V84.6989H333.97V83.5409Z" fill="#E5E5E5"/>
<path d="M333.97 87.2058H319.473V88.3638H333.97V87.2058Z" fill="#E5E5E5"/>
<path d="M316.674 80.5912H309.671V87.6479H316.674V80.5912Z" fill="#E5E5E5"/>
<path d="M314.46 105.612C316.143 105.612 317.508 104.238 317.508 102.542C317.508 100.846 316.143 99.4707 314.46 99.4707C312.777 99.4707 311.412 100.846 311.412 102.542C311.412 104.238 312.777 105.612 314.46 105.612Z" fill="#2C305E"/>
<path d="M322.587 105.051C323.962 105.051 325.077 103.927 325.077 102.541C325.077 101.156 323.962 100.032 322.587 100.032C321.211 100.032 320.096 101.156 320.096 102.541C320.096 103.927 321.211 105.051 322.587 105.051Z" fill="#2C305E"/>
<path d="M330.714 104.068C331.551 104.068 332.229 103.385 332.229 102.542C332.229 101.698 331.551 101.015 330.714 101.015C329.877 101.015 329.199 101.698 329.199 102.542C329.199 103.385 329.877 104.068 330.714 104.068Z" fill="#2C305E"/>
<path d="M233.803 126.181H180.386C179.12 126.179 177.906 125.672 177.01 124.77C176.115 123.868 175.612 122.645 175.61 121.369V43.3118C175.612 42.0361 176.115 40.813 177.01 39.9109C177.906 39.0089 179.12 38.5014 180.386 38.5H233.803C235.069 38.5014 236.283 39.0089 237.178 39.9109C238.073 40.813 238.577 42.0361 238.578 43.3118V121.369C238.577 122.645 238.073 123.868 237.178 124.77C236.283 125.672 235.069 126.179 233.803 126.181Z" fill="#E5E5E5"/>
<path d="M233.897 123.111H180.291C179.901 123.111 179.527 122.954 179.251 122.676C178.975 122.398 178.82 122.021 178.819 121.628V43.0534C178.82 42.6601 178.975 42.2831 179.251 42.005C179.527 41.7269 179.901 41.5705 180.291 41.5701H233.897C234.287 41.5705 234.661 41.7269 234.937 42.005C235.213 42.2831 235.368 42.6601 235.369 43.0534V121.628C235.368 122.021 235.213 122.398 234.937 122.676C234.661 122.954 234.287 123.111 233.897 123.111Z" fill="white"/>
<path d="M206.891 40.3845C207.116 40.3845 207.297 40.2009 207.297 39.9744C207.297 39.7479 207.116 39.5643 206.891 39.5643C206.667 39.5643 206.485 39.7479 206.485 39.9744C206.485 40.2009 206.667 40.3845 206.891 40.3845Z" fill="white"/>
<path d="M229.311 65.6676H199.497V67.3938H229.311V65.6676Z" fill="#E5E5E5"/>
<path d="M229.311 71.1336H199.497V72.8597H229.311V71.1336Z" fill="#E5E5E5"/>
<path d="M229.311 76.5997H199.497V78.3259H229.311V76.5997Z" fill="#E5E5E5"/>
<path d="M195.322 66.7344H184.877V77.2591H195.322V66.7344Z" fill="#E5E5E5"/>
<path d="M197.07 99.0134C199.362 99.0134 201.221 97.1411 201.221 94.8315C201.221 92.5219 199.362 90.6496 197.07 90.6496C194.778 90.6496 192.92 92.5219 192.92 94.8315C192.92 97.1411 194.778 99.0134 197.07 99.0134Z" fill="#2C305E"/>
<path d="M208.138 98.2486C210.011 98.2486 211.529 96.7187 211.529 94.8314C211.529 92.9442 210.011 91.4142 208.138 91.4142C206.265 91.4142 204.746 92.9442 204.746 94.8314C204.746 96.7187 206.265 98.2486 208.138 98.2486Z" fill="#2C305E"/>
<path d="M219.205 96.9104C220.344 96.9104 221.268 95.9796 221.268 94.8314C221.268 93.6832 220.344 92.7524 219.205 92.7524C218.065 92.7524 217.142 93.6832 217.142 94.8314C217.142 95.9796 218.065 96.9104 219.205 96.9104Z" fill="#2C305E"/>
<path d="M335.373 133.402H177.768C177.199 133.402 176.635 133.515 176.108 133.735C175.582 133.955 175.104 134.277 174.701 134.682C174.298 135.088 173.979 135.57 173.761 136.101C173.543 136.631 173.43 137.199 173.43 137.773V226.257C173.43 227.416 173.887 228.528 174.701 229.348C175.515 230.168 176.618 230.628 177.768 230.628H335.373C336.524 230.628 337.627 230.168 338.44 229.348C339.254 228.528 339.711 227.416 339.711 226.257V137.773C339.711 136.614 339.254 135.502 338.44 134.682C337.627 133.863 336.524 133.402 335.373 133.402Z" fill="#3F3D56"/>
<path d="M333.895 141.127H179.246V229.03H333.895V141.127Z" fill="white"/>
<path d="M256.439 138.73C257.315 138.73 258.025 138.014 258.025 137.131C258.025 136.249 257.315 135.533 256.439 135.533C255.563 135.533 254.852 136.249 254.852 137.131C254.852 138.014 255.563 138.73 256.439 138.73Z" fill="white"/>
<path d="M344.053 227.432H328.961V226.336C328.961 226.307 328.955 226.279 328.944 226.253C328.933 226.226 328.917 226.203 328.897 226.182C328.877 226.162 328.854 226.146 328.828 226.135C328.801 226.124 328.773 226.119 328.745 226.119H323.57C323.542 226.119 323.514 226.124 323.488 226.135C323.462 226.146 323.438 226.162 323.418 226.182C323.398 226.203 323.382 226.226 323.371 226.253C323.36 226.279 323.355 226.307 323.355 226.336V227.432H320.121V226.336C320.121 226.307 320.115 226.279 320.104 226.253C320.093 226.226 320.077 226.203 320.057 226.182C320.037 226.162 320.014 226.146 319.988 226.135C319.961 226.124 319.933 226.119 319.905 226.119H314.73C314.702 226.119 314.674 226.124 314.648 226.135C314.622 226.146 314.598 226.162 314.578 226.182C314.558 226.203 314.542 226.226 314.531 226.253C314.52 226.279 314.515 226.307 314.515 226.336V227.432H311.281V226.336C311.281 226.307 311.275 226.279 311.264 226.253C311.253 226.226 311.237 226.203 311.217 226.182C311.197 226.162 311.174 226.146 311.147 226.135C311.121 226.124 311.093 226.119 311.065 226.119H305.89C305.862 226.119 305.834 226.124 305.808 226.135C305.782 226.146 305.758 226.162 305.738 226.182C305.718 226.203 305.702 226.226 305.691 226.253C305.68 226.279 305.675 226.307 305.675 226.336V227.432H302.441V226.336C302.441 226.307 302.435 226.279 302.424 226.253C302.413 226.226 302.397 226.203 302.377 226.182C302.357 226.162 302.334 226.146 302.307 226.135C302.281 226.124 302.253 226.119 302.225 226.119H297.05C297.022 226.119 296.994 226.124 296.968 226.135C296.942 226.146 296.918 226.162 296.898 226.182C296.878 226.203 296.862 226.226 296.851 226.253C296.84 226.279 296.835 226.307 296.835 226.336V227.432H293.601V226.336C293.601 226.307 293.595 226.279 293.584 226.253C293.573 226.226 293.557 226.202 293.537 226.182C293.517 226.162 293.494 226.146 293.467 226.135C293.441 226.124 293.413 226.119 293.385 226.119H288.21C288.182 226.119 288.154 226.124 288.128 226.135C288.102 226.146 288.078 226.162 288.058 226.182C288.038 226.202 288.022 226.226 288.011 226.253C288 226.279 287.995 226.307 287.995 226.336V227.432H284.761V226.336C284.761 226.307 284.755 226.279 284.744 226.253C284.733 226.226 284.717 226.202 284.697 226.182C284.677 226.162 284.654 226.146 284.627 226.135C284.601 226.124 284.573 226.119 284.545 226.119H279.37C279.342 226.119 279.314 226.124 279.288 226.135C279.262 226.146 279.238 226.162 279.218 226.182C279.198 226.202 279.182 226.226 279.171 226.253C279.16 226.279 279.155 226.307 279.155 226.336V227.432H275.92V226.336C275.92 226.307 275.915 226.279 275.904 226.253C275.893 226.226 275.877 226.202 275.857 226.182C275.837 226.162 275.814 226.146 275.787 226.135C275.761 226.124 275.733 226.119 275.705 226.119H235.17C235.142 226.119 235.114 226.124 235.088 226.135C235.061 226.146 235.038 226.162 235.018 226.182C234.998 226.202 234.982 226.226 234.971 226.253C234.96 226.279 234.954 226.307 234.954 226.336V227.432H231.72V226.336C231.72 226.307 231.715 226.279 231.704 226.253C231.693 226.226 231.677 226.202 231.657 226.182C231.637 226.162 231.613 226.146 231.587 226.135C231.561 226.124 231.533 226.119 231.505 226.119H226.33C226.302 226.119 226.274 226.124 226.248 226.135C226.221 226.146 226.198 226.162 226.178 226.182C226.158 226.202 226.142 226.226 226.131 226.253C226.12 226.279 226.114 226.307 226.114 226.336V227.432H222.88V226.336C222.88 226.307 222.875 226.279 222.864 226.253C222.853 226.226 222.837 226.203 222.817 226.182C222.797 226.162 222.773 226.146 222.747 226.135C222.721 226.124 222.693 226.119 222.665 226.119H217.49C217.462 226.119 217.434 226.124 217.408 226.135C217.381 226.146 217.358 226.162 217.338 226.182C217.318 226.202 217.302 226.226 217.291 226.253C217.28 226.279 217.274 226.307 217.274 226.336V227.432H214.04V226.336C214.04 226.307 214.035 226.279 214.024 226.253C214.013 226.226 213.997 226.202 213.977 226.182C213.957 226.162 213.933 226.146 213.907 226.135C213.881 226.124 213.853 226.119 213.825 226.119H208.65C208.622 226.119 208.594 226.124 208.568 226.135C208.541 226.146 208.518 226.162 208.498 226.182C208.478 226.202 208.462 226.226 208.451 226.253C208.44 226.279 208.434 226.307 208.434 226.336V227.432H205.2V226.336C205.2 226.307 205.195 226.279 205.184 226.253C205.173 226.226 205.157 226.202 205.137 226.182C205.117 226.162 205.093 226.146 205.067 226.135C205.041 226.124 205.013 226.119 204.985 226.119H199.81C199.782 226.119 199.754 226.124 199.727 226.135C199.701 226.146 199.678 226.162 199.658 226.182C199.638 226.202 199.622 226.226 199.611 226.253C199.6 226.279 199.594 226.307 199.594 226.336V227.432H196.36V226.336C196.36 226.307 196.355 226.279 196.344 226.253C196.333 226.226 196.317 226.202 196.297 226.182C196.277 226.162 196.253 226.146 196.227 226.135C196.201 226.124 196.173 226.119 196.145 226.119H190.97C190.913 226.119 190.858 226.142 190.818 226.182C190.777 226.223 190.754 226.278 190.754 226.336V227.432H187.52V226.336C187.52 226.307 187.515 226.279 187.504 226.253C187.493 226.226 187.477 226.202 187.457 226.182C187.437 226.162 187.413 226.146 187.387 226.135C187.361 226.124 187.333 226.119 187.305 226.119H182.13C182.073 226.119 182.018 226.142 181.977 226.182C181.937 226.223 181.914 226.278 181.914 226.336V227.432H171.996C171.317 227.432 170.644 227.567 170.016 227.829C169.388 228.091 168.818 228.475 168.337 228.959C167.857 229.443 167.476 230.018 167.215 230.65C166.955 231.283 166.822 231.961 166.822 232.646V235.003C166.822 236.386 167.367 237.713 168.337 238.69C169.308 239.668 170.624 240.218 171.996 240.218H344.053C345.426 240.218 346.742 239.668 347.712 238.69C348.683 237.713 349.228 236.386 349.228 235.003V232.646C349.228 231.961 349.094 231.283 348.834 230.65C348.574 230.018 348.193 229.443 347.712 228.959C347.232 228.475 346.661 228.091 346.034 227.829C345.406 227.567 344.733 227.432 344.053 227.432Z" fill="#3F3D56"/>
<path d="M291.043 149.497H241.033V151.369H291.043V149.497Z" fill="#CBCBCB"/>
<path d="M291.043 155.426H241.033V157.298H291.043V155.426Z" fill="#CBCBCB"/>
<path d="M291.043 161.355H241.033V163.228H291.043V161.355Z" fill="#CBCBCB"/>
<path d="M236.505 150.654H225.175V162.071H236.505V150.654Z" fill="#CBCBCB"/>
<path d="M256.45 212.654C267.401 212.654 276.278 203.709 276.278 192.675C276.278 181.64 267.401 172.695 256.45 172.695C245.499 172.695 236.622 181.64 236.622 192.675C236.622 203.709 245.499 212.654 256.45 212.654Z" fill="#2C305E"/>
<path d="M253.231 195.656H249.074L256.431 180.59L263.827 195.642H259.666V201.905H253.231V195.656Z" fill="white"/>
<path d="M151.782 120.427C154.603 117.098 158.478 114.854 162.753 114.075L160.854 112.467L162.885 112.29L165.484 114.491L163.3 117.11L161.268 117.288L162.732 115.534C158.423 116.396 154.594 118.862 152.008 122.441C149.422 126.02 148.269 130.449 148.778 134.846C149.286 139.243 151.42 143.285 154.753 146.169C158.087 149.052 162.376 150.565 166.767 150.405L166.818 151.831C163.15 151.964 159.523 151.018 156.381 149.108C153.238 147.199 150.715 144.408 149.12 141.077C147.526 137.747 146.928 134.02 147.401 130.353C147.874 126.686 149.396 123.237 151.782 120.427Z" fill="#E5E5E5"/>
<path d="M365.621 133.489C365.441 138.535 363.279 143.303 359.61 146.742C355.942 150.182 351.067 152.013 346.059 151.831L346.11 150.405C350.501 150.565 354.79 149.052 358.124 146.169C361.457 143.285 363.591 139.243 364.1 134.846C364.608 130.449 363.455 126.02 360.869 122.441C358.283 118.862 354.454 116.396 350.145 115.534L351.609 117.288L349.578 117.11L347.393 114.491L349.992 112.29L352.023 112.467L350.124 114.075C354.591 114.894 358.616 117.307 361.462 120.872C364.308 124.438 365.785 128.916 365.621 133.489Z" fill="#E5E5E5"/>
<path d="M369.57 240.482H143.307C143.193 240.482 143.084 240.436 143.003 240.355C142.922 240.274 142.877 240.163 142.877 240.048C142.877 239.933 142.922 239.823 143.003 239.742C143.084 239.66 143.193 239.615 143.307 239.615H369.57C369.684 239.615 369.793 239.66 369.874 239.742C369.955 239.823 370 239.933 370 240.048C370 240.163 369.955 240.274 369.874 240.355C369.793 240.436 369.684 240.482 369.57 240.482Z" fill="#CBCBCB"/>
</g>
<defs>
<clipPath id="clip0_88_185">
<rect width="370" height="280" fill="white" transform="translate(0 38.5)"/>
</clipPath>
</defs>
</svg>
