<svg width="326" height="357" viewBox="0 0 326 357" fill="none" xmlns="http://www.w3.org/2000/svg">
<path d="M86.7295 46.5441C46.6691 78.6083 88.2905 149.46 50.8455 172.943C13.4004 196.425 27.3466 213.06 28.7487 240.949C32.3383 312.354 131.786 330.809 199.338 307.396C287.714 276.766 318.249 140.79 252.831 73.9393C206.85 26.9509 138.056 5.46224 86.7295 46.5441Z" fill="#2C305E" fill-opacity="0.3"/>
<path d="M314.183 94.5452H11.8165C11.3674 94.5448 10.9369 94.3662 10.6194 94.0486C10.3019 93.7311 10.1233 93.3006 10.1228 92.8516V82.8891C10.1233 82.44 10.3019 82.0095 10.6194 81.692C10.9369 81.3745 11.3674 81.1959 11.8165 81.1954H314.183C314.632 81.1959 315.063 81.3745 315.38 81.692C315.698 82.0095 315.876 82.44 315.877 82.8891V92.8516C315.876 93.3006 315.698 93.7311 315.38 94.0486C315.063 94.3662 314.632 94.5448 314.183 94.5452Z" fill="#E4E4E4"/>
<path d="M19.9519 89.7892C21.2799 89.7892 22.3566 88.7126 22.3566 87.3845C22.3566 86.0564 21.2799 84.9798 19.9519 84.9798C18.6238 84.9798 17.5472 86.0564 17.5472 87.3845C17.5472 88.7126 18.6238 89.7892 19.9519 89.7892Z" fill="white"/>
<path d="M29.0788 89.7892C30.4069 89.7892 31.4835 88.7126 31.4835 87.3845C31.4835 86.0564 30.4069 84.9798 29.0788 84.9798C27.7508 84.9798 26.6742 86.0564 26.6742 87.3845C26.6742 88.7126 27.7508 89.7892 29.0788 89.7892Z" fill="white"/>
<path d="M38.2062 89.7892C39.5343 89.7892 40.6109 88.7126 40.6109 87.3845C40.6109 86.0564 39.5343 84.9798 38.2062 84.9798C36.8781 84.9798 35.8015 86.0564 35.8015 87.3845C35.8015 88.7126 36.8781 89.7892 38.2062 89.7892Z" fill="white"/>
<path d="M311.894 329.165H177.412C176.323 329.163 175.28 328.73 174.51 327.961C173.74 327.191 173.307 326.147 173.306 325.059V229.995C173.307 228.906 173.74 227.863 174.51 227.093C175.28 226.323 176.323 225.89 177.412 225.889H311.894C312.982 225.89 314.026 226.323 314.796 227.093C315.566 227.863 315.999 228.906 316 229.995V325.059C315.999 326.147 315.566 327.191 314.796 327.961C314.026 328.73 312.982 329.163 311.894 329.165Z" fill="#E6E6E6"/>
<path d="M306.295 231.487H183.013C181.924 231.489 180.88 231.922 180.109 232.692C179.339 233.462 178.906 234.506 178.905 235.595V319.458C178.906 320.547 179.339 321.592 180.11 322.362C180.88 323.132 181.924 323.565 183.013 323.566H306.295C307.384 323.565 308.428 323.131 309.197 322.361C309.967 321.591 310.399 320.547 310.4 319.458V235.595C310.399 234.506 309.967 233.462 309.197 232.692C308.428 231.922 307.384 231.489 306.295 231.487Z" fill="white"/>
<path d="M255.888 271.355C257.934 262.443 252.369 253.561 243.457 251.515C234.546 249.469 225.663 255.034 223.617 263.946C221.572 272.857 227.137 281.74 236.049 283.786C244.96 285.832 253.843 280.266 255.888 271.355Z" fill="#9E616A"/>
<path d="M287.366 307.977C286.757 305.1 285.379 302.443 283.379 300.287C281.379 298.132 278.832 296.559 276.009 295.737L275.996 295.731C275.457 295.465 274.887 295.27 274.299 295.148L254.403 291.077L250.417 286.8L233.456 287.883L231.685 292.803L212.202 301.462L212.525 301.235C211.69 301.57 210.879 301.959 210.095 302.4L209.996 302.444C209.435 302.696 208.913 303.029 208.448 303.432C203.493 306.871 200.219 312.39 200.098 318.544L199.584 323.566H290.675L287.366 307.977Z" fill="#2C305E"/>
<path d="M257.871 258.777C256.516 254.544 252.55 250.969 248.107 251.083C248.453 250.027 247.862 248.843 246.977 248.171C246.092 247.499 244.973 247.23 243.885 247.003C241.636 246.535 239.292 246.177 237.056 246.705C234.82 247.233 232.702 248.837 232.198 251.078C230.162 249.169 226.397 249.698 224.964 252.093C224.227 253.325 224.122 254.982 224.919 256.177C225.711 257.364 227.21 257.898 228.636 257.966C230.062 258.033 231.473 257.713 232.892 257.564C236.283 257.208 239.863 257.891 242.604 259.918C245.345 261.945 247.096 265.421 246.609 268.795C247.704 268.095 249.283 268.581 250.048 269.632C250.813 270.683 250.873 272.12 250.518 273.37C250.162 274.621 249.441 275.731 248.73 276.819C247.42 278.823 246.11 280.827 244.8 282.831L245.336 283.188C247.312 284.021 249.45 282.463 250.889 280.873C253.315 278.189 255.269 275.114 256.668 271.778C258.387 267.679 259.226 263.011 257.871 258.777Z" fill="#2F2E41"/>
<path d="M186.455 255.551H15.228C13.8419 255.55 12.513 254.998 11.5329 254.018C10.5528 253.038 10.0015 251.709 9.9999 250.323V129.285C10.0015 127.899 10.5528 126.57 11.5329 125.59C12.513 124.61 13.8419 124.058 15.228 124.057H186.455C187.841 124.058 189.17 124.61 190.15 125.59C191.13 126.57 191.681 127.899 191.683 129.285V250.323C191.681 251.709 191.13 253.038 190.15 254.018C189.17 254.998 187.841 255.55 186.455 255.551Z" fill="#E6E6E6"/>
<path d="M179.327 131.184H22.3586C20.9719 131.186 19.6426 131.738 18.6621 132.718C17.6816 133.699 17.1299 135.028 17.1282 136.415V243.193C17.1299 244.58 17.6816 245.909 18.6621 246.889C19.6426 247.87 20.9719 248.422 22.3586 248.423H179.327C180.713 248.421 182.042 247.87 183.022 246.889C184.001 245.908 184.552 244.579 184.553 243.193V136.415C184.552 135.029 184.001 133.699 183.022 132.719C182.042 131.738 180.713 131.186 179.327 131.184Z" fill="white"/>
<path d="M123.428 181.295L123.138 181.817C125.715 175.466 123.372 167.64 118.775 162.851C114.178 158.063 107.788 155.874 101.495 155.005C96.8237 154.36 91.9749 154.379 87.5332 156.09C81.1011 158.568 76.1868 164.304 72.0837 170.271C70.2069 173 68.3617 176.112 68.5486 179.523C68.7222 182.689 70.6013 185.375 72.1401 188.061C73.6791 190.747 74.9642 194.079 73.8598 197.011C73.2016 198.757 71.8106 200.016 70.682 201.445C69.5534 202.874 68.6249 204.805 69.1701 206.598C69.6112 208.048 70.938 209.002 72.3026 209.32C73.667 209.638 75.0825 209.431 76.4643 209.222L112.332 203.803C114.769 203.434 117.081 202.482 119.071 201.027C121.061 199.572 122.669 197.658 123.759 195.447C124.849 193.236 125.388 190.794 125.33 188.33C125.273 185.866 124.62 183.452 123.428 181.295Z" fill="#2F2E41"/>
<path d="M96.7487 203.553C106.434 203.553 114.285 195.701 114.285 186.016C114.285 176.331 106.434 168.48 96.7487 168.48C87.0636 168.48 79.2123 176.331 79.2123 186.016C79.2123 195.701 87.0636 203.553 96.7487 203.553Z" fill="#FFB9B9"/>
<path d="M140.489 225.715C139.354 223.228 137.564 221.097 135.311 219.549C133.057 218.002 130.425 217.097 127.697 216.93L122.81 216.634L122.821 216.686L110.397 209.212C110.703 209.562 90.1881 210.295 90.1881 210.295L82.5764 216.861L79.3842 217.055C76.6557 217.221 74.0238 218.126 71.7705 219.673C69.5171 221.221 67.7271 223.352 66.5923 225.839L56.226 248.547H76.8873L77.3666 246.485C77.888 247.12 78.3936 247.766 78.8834 248.423H150.855L140.489 225.715Z" fill="#2C305E"/>
<path d="M113.382 169.74C112.93 167.346 110.487 166.25 108.395 165.72C102.325 164.171 96.0104 163.824 89.8074 164.699C85.2856 165.344 80.6564 166.766 77.3754 170.295C74.8164 173.048 73.2681 176.992 73.1476 181.063C73.0774 183.436 73.5018 185.906 74.6824 187.904C75.8631 189.903 77.8756 191.352 79.9531 191.301L80.1635 192.033C88.968 190.806 97.1466 185.328 102.297 177.207C101.331 180.659 99.4069 183.767 96.7483 186.172C102.693 183.793 107.86 179.811 111.674 174.669C112.715 173.286 113.727 171.562 113.382 169.74Z" fill="#2F2E41"/>
<path d="M305.241 85.7294H294.731C294.628 85.7297 294.527 85.7098 294.432 85.6708C294.337 85.6318 294.251 85.5745 294.179 85.5022C294.106 85.4299 294.049 85.3439 294.009 85.2493C293.97 85.1547 293.95 85.0533 293.95 84.9508C293.95 84.8484 293.97 84.747 294.009 84.6524C294.049 84.5577 294.106 84.4718 294.179 84.3995C294.251 84.3272 294.337 84.2699 294.432 84.2309C294.527 84.1919 294.628 84.172 294.731 84.1723H305.241C305.447 84.173 305.644 84.2553 305.79 84.4012C305.935 84.5471 306.017 84.7448 306.017 84.9508C306.017 85.1569 305.935 85.3545 305.79 85.5005C305.644 85.6464 305.447 85.7287 305.241 85.7294Z" fill="white"/>
<path d="M305.241 88.6488H294.731C294.628 88.6491 294.527 88.6292 294.432 88.5902C294.337 88.5513 294.251 88.494 294.179 88.4216C294.106 88.3493 294.049 88.2634 294.009 88.1688C293.97 88.0742 293.95 87.9727 293.95 87.8703C293.95 87.7678 293.97 87.6664 294.009 87.5718C294.049 87.4772 294.106 87.3913 294.179 87.3189C294.251 87.2466 294.337 87.1893 294.432 87.1503C294.527 87.1114 294.628 87.0915 294.731 87.0918H305.241C305.447 87.0924 305.644 87.1747 305.79 87.3206C305.935 87.4666 306.017 87.6642 306.017 87.8703C306.017 88.0763 305.935 88.274 305.79 88.4199C305.644 88.5659 305.447 88.6482 305.241 88.6488Z" fill="white"/>
<path d="M305.241 91.5683H294.731C294.628 91.5686 294.527 91.5487 294.432 91.5097C294.337 91.4707 294.251 91.4134 294.179 91.3411C294.106 91.2688 294.049 91.1828 294.009 91.0882C293.97 90.9936 293.95 90.8922 293.95 90.7897C293.95 90.6873 293.97 90.5859 294.009 90.4913C294.049 90.3966 294.106 90.3107 294.179 90.2384C294.251 90.1661 294.337 90.1088 294.432 90.0698C294.527 90.0308 294.628 90.0109 294.731 90.0112H305.241C305.447 90.0119 305.644 90.0942 305.79 90.2401C305.935 90.386 306.017 90.5837 306.017 90.7897C306.017 90.9958 305.935 91.1934 305.79 91.3394C305.644 91.4853 305.447 91.5676 305.241 91.5683Z" fill="white"/>
</svg>
