<svg width="370" height="357" viewBox="0 0 370 357" fill="none" xmlns="http://www.w3.org/2000/svg">
<path d="M343.506 238.823C355.199 178.106 312.023 109.707 288.974 83.0971C256.367 49.9283 241.373 39.2466 193.402 39.2467C153.158 39.2468 108.699 78.4123 89.9599 102.211C68.0347 129.759 25.3086 194.86 29.8061 234.887C35.4279 284.922 87.9444 311.8 116.616 303.929C145.287 296.058 170.194 288.643 211 303.929C231.256 311.517 253 308.5 262.784 308.989C284.784 310.087 331.812 299.539 343.506 238.823Z" fill="#C1C2D8"/>
<g clip-path="url(#clip0_89_229)">
<path d="M262.478 292.749C258.118 289.302 255.47 283.858 256.164 278.559C256.859 273.259 261.161 268.387 266.741 267.262C272.321 266.136 278.682 269.252 280.376 274.35C281.309 264.52 282.384 254.279 287.971 245.908C293.03 238.328 301.793 232.904 311.29 231.934C320.786 230.964 330.785 234.628 336.708 241.639C342.63 248.651 344.08 258.843 339.932 266.893C336.877 272.822 331.247 277.235 325.348 280.825C306.288 292.329 283.427 297.007 260.973 293.998" fill="#F2F2F2"/>
<path d="M327.316 234.831C319.481 240.801 312.292 247.478 305.855 254.765C295.78 266.131 287.628 278.874 281.682 292.55C281.246 293.548 282.979 293.982 283.409 292.995C293.138 270.769 308.67 251.178 328.583 236.016C329.477 235.335 328.203 234.156 327.316 234.831Z" fill="white"/>
<path d="M104.514 295.107H79.7859C78.9504 295.106 78.1493 294.795 77.5585 294.243C76.9676 293.69 76.6353 292.941 76.6343 292.159V244.086C76.6353 243.305 76.9676 242.555 77.5585 242.003C78.1493 241.45 78.9504 241.139 79.7859 241.138H104.514C105.349 241.139 106.15 241.45 106.741 242.003C107.332 242.555 107.664 243.305 107.665 244.086V292.159C107.664 292.941 107.332 293.69 106.741 294.243C106.15 294.795 105.349 295.106 104.514 295.107Z" fill="#2C305E"/>
<path d="M163.182 295.561H138.454C137.49 295.56 136.565 295.201 135.884 294.563C135.202 293.926 134.818 293.061 134.817 292.159V198.734C134.818 197.832 135.202 196.968 135.884 196.33C136.565 195.693 137.49 195.334 138.454 195.333H163.182C164.146 195.334 165.07 195.693 165.752 196.33C166.433 196.968 166.817 197.832 166.818 198.734V292.159C166.817 293.061 166.433 293.926 165.752 294.563C165.07 295.201 164.146 295.56 163.182 295.561ZM138.454 196.24C137.747 196.241 137.069 196.504 136.569 196.971C136.069 197.439 135.788 198.073 135.787 198.734V292.159C135.788 292.821 136.069 293.455 136.569 293.922C137.069 294.39 137.747 294.653 138.454 294.654H163.182C163.889 294.653 164.566 294.39 165.066 293.922C165.566 293.455 165.847 292.821 165.848 292.159V198.734C165.847 198.073 165.566 197.439 165.066 196.971C164.566 196.504 163.889 196.241 163.182 196.24H138.454Z" fill="#3F3D56"/>
<path d="M221.849 295.561H197.121C196.157 295.56 195.233 295.201 194.551 294.563C193.87 293.926 193.486 293.061 193.485 292.159V139.323C193.486 138.421 193.87 137.557 194.551 136.919C195.233 136.281 196.157 135.923 197.121 135.922H221.849C222.813 135.923 223.738 136.281 224.419 136.919C225.101 137.557 225.485 138.421 225.486 139.323V292.159C225.485 293.061 225.101 293.926 224.419 294.563C223.738 295.201 222.813 295.56 221.849 295.561ZM197.121 136.829C196.414 136.829 195.737 137.092 195.237 137.56C194.737 138.028 194.455 138.662 194.455 139.323V292.159C194.455 292.821 194.737 293.455 195.237 293.922C195.737 294.39 196.414 294.653 197.121 294.654H221.849C222.556 294.653 223.234 294.39 223.734 293.922C224.234 293.455 224.515 292.821 224.516 292.159V139.323C224.515 138.662 224.234 138.028 223.734 137.56C223.234 137.092 222.556 136.829 221.849 136.829H197.121Z" fill="#3F3D56"/>
<path d="M281.065 295.334H256.337C255.501 295.333 254.7 295.022 254.109 294.47C253.519 293.917 253.186 293.168 253.185 292.386V76.964C253.186 76.1824 253.519 75.4331 254.109 74.8805C254.7 74.3278 255.501 74.017 256.337 74.0161H281.065C281.9 74.017 282.701 74.3278 283.292 74.8805C283.883 75.4331 284.215 76.1824 284.216 76.964V292.386C284.215 293.168 283.883 293.917 283.292 294.47C282.701 295.022 281.9 295.333 281.065 295.334Z" fill="#2C305E"/>
<path d="M127.274 162.283C127.363 161.622 127.297 160.95 127.079 160.315C126.861 159.68 126.497 159.098 126.013 158.609C125.528 158.12 124.935 157.736 124.275 157.485C123.614 157.234 122.903 157.121 122.191 157.154L113.572 142.366L111.633 148.715L117.538 162.269C117.677 163.384 118.249 164.412 119.145 165.159C120.041 165.905 121.199 166.319 122.399 166.321C123.599 166.323 124.758 165.913 125.657 165.168C126.555 164.424 127.13 163.398 127.274 162.283Z" fill="#A0616A"/>
<path d="M60.866 220.676L65.6665 223.955L81.4705 208.193L74.3848 203.355L60.866 220.676Z" fill="#A0616A"/>
<path d="M71.6711 234.447L56.5823 224.143L60.8384 218.69L70.0974 225.013C71.6435 226.069 72.6779 227.656 72.9731 229.425C73.2682 231.194 72.7998 233.001 71.6711 234.447Z" fill="#2F2E41"/>
<path d="M86.2653 238.03L92.2096 238.029L95.0373 216.583L86.2643 216.584L86.2653 238.03Z" fill="#A0616A"/>
<path d="M103.674 243.192L84.9919 243.193L84.9916 236.441L96.4555 236.441C98.3698 236.441 100.206 237.152 101.559 238.418C102.913 239.684 103.674 241.401 103.674 243.192Z" fill="#2F2E41"/>
<path d="M104.118 154.384C104.118 154.384 107.027 180.688 99.7539 198.829L94.4205 233.296H85.2082L86.1779 192.48L82.7839 156.198C82.7839 156.198 89.5719 139.871 104.118 154.384Z" fill="#2F2E41"/>
<path d="M72.6019 156.198L82.2991 187.491L63.3896 215.609L72.8444 223.092L94.4205 191.572L88.1174 153.023L72.6019 156.198Z" fill="#2F2E41"/>
<path d="M97.3316 86.0264C103.909 86.0264 109.24 81.0393 109.24 74.8875C109.24 68.7356 103.909 63.7486 97.3316 63.7486C90.7546 63.7486 85.423 68.7356 85.423 74.8875C85.423 81.0393 90.7546 86.0264 97.3316 86.0264Z" fill="#A0616A"/>
<path d="M87.39 90.2108C87.39 90.2108 94.6629 85.6755 102.905 95.653L105.087 158.466C105.087 158.466 98.7842 150.302 85.693 158.012C72.6019 165.722 69.6927 157.105 69.6927 157.105C69.6927 157.105 60.4804 92.2516 87.39 90.2108Z" fill="#CCCCCC"/>
<path d="M102.319 95.4947C104.411 95.6004 106.387 96.4259 107.867 97.8124C109.347 99.1989 110.227 101.048 110.337 103.005L111.875 130.347L122.057 156.198L116.239 160.733L97.3296 129.894L93.4581 104.545C93.2807 103.383 93.3808 102.199 93.7513 101.078C94.1219 99.9565 94.7536 98.926 95.601 98.0605C96.4484 97.195 97.4903 96.5159 98.652 96.0722C99.8136 95.6286 101.066 95.4313 102.319 95.4947Z" fill="#CCCCCC"/>
<path d="M88.5813 83.2428C90.5282 85.1826 94.1437 84.1413 94.3974 81.4913C94.4173 81.2855 94.4158 81.0785 94.3931 80.873C94.2621 79.6992 93.5371 78.6335 93.7107 77.3941C93.75 77.0856 93.8729 76.7916 94.0677 76.54C95.6191 74.5969 99.2608 77.4092 100.725 75.6501C101.623 74.5715 100.567 72.8732 101.256 71.6676C102.166 70.0765 104.859 70.8614 106.548 69.99C108.427 69.0205 108.315 66.3237 107.078 64.6833C105.569 62.6828 102.924 61.6154 100.312 61.4615C97.6999 61.3076 95.1059 61.9681 92.6672 62.8571C89.8965 63.867 87.1489 65.2629 85.4438 67.5417C83.3703 70.3131 83.1707 74.0389 84.2078 77.2794C84.8386 79.2507 86.9915 81.6588 88.5813 83.2428Z" fill="#2F2E41"/>
<path d="M341.923 295.368H28.0775C27.9246 295.368 27.7782 295.311 27.6703 295.21C27.5624 295.108 27.5018 294.971 27.5018 294.828C27.5018 294.686 27.5624 294.548 27.6703 294.447C27.7782 294.346 27.9246 294.289 28.0775 294.288H341.923C342.076 294.289 342.222 294.346 342.33 294.447C342.438 294.548 342.498 294.686 342.498 294.828C342.498 294.971 342.438 295.108 342.33 295.21C342.222 295.311 342.076 295.368 341.923 295.368Z" fill="#3F3D56"/>
</g>
<defs>
<clipPath id="clip0_89_229">
<rect width="315" height="234.122" fill="white" transform="translate(27.5 61.4392)"/>
</clipPath>
</defs>
</svg>
