<svg width="274" height="209" viewBox="0 0 274 209" fill="none" xmlns="http://www.w3.org/2000/svg">
<path d="M254.614 147.075C262.311 107.11 248.083 51.724 232.912 34.2085C211.449 12.3759 187.189 1.07487 155.614 1.07495C129.124 1.07501 44.1139 -8.92504 15.1138 32.075C-8.88612 56.575 2.15349 112.594 5.11386 138.941C8.81432 171.876 27.1139 194.859 84.6139 179.075C103.486 173.894 136.237 171.735 163.097 181.796C176.43 186.791 190.743 184.805 197.183 185.127C211.664 185.85 246.917 187.04 254.614 147.075Z" fill="#C1C2D8"/>
<g clip-path="url(#clip0_130_21)">
<path d="M30.6195 208.035C30.6195 208.255 30.7958 208.431 31.0153 208.431H273.604C273.824 208.431 274 208.255 274 208.035C274 207.816 273.824 207.639 273.604 207.639H31.0153C30.7958 207.639 30.6195 207.816 30.6195 208.035Z" fill="#3F3D58"/>
<path d="M108.3 60.6504H30.4964C27.5293 60.6504 25.1144 58.2355 25.1144 55.2684C25.1144 52.3012 27.5293 49.8863 30.4964 49.8863H108.3C111.267 49.8863 113.682 52.3012 113.682 55.2684C113.682 58.2355 111.267 60.6504 108.3 60.6504ZM30.4964 50.5516C27.8952 50.5516 25.7797 52.6671 25.7797 55.2684C25.7797 57.8696 27.8952 59.9852 30.4964 59.9852H108.3C110.901 59.9852 113.017 57.8696 113.017 55.2684C113.017 52.6671 110.901 50.5516 108.3 50.5516H30.4964Z" fill="#E2E3E4"/>
<path d="M108.3 123.635H30.4964C27.6191 123.635 25.2806 121.297 25.2806 118.419C25.2806 115.542 27.6191 113.204 30.4964 113.204H108.3C111.177 113.204 113.516 115.542 113.516 118.419C113.516 121.297 111.177 123.635 108.3 123.635Z" fill="#2C305E"/>
<path d="M82.8036 39.4315H29.2157C26.3384 39.4315 24 37.0931 24 34.2157C24 31.3384 26.3384 29 29.2157 29H82.8036C85.6809 29 88.0193 31.3384 88.0193 34.2157C88.0193 37.0931 85.6809 39.4315 82.8036 39.4315Z" fill="#E2E3E4"/>
<path d="M108.3 81.6997H30.4964C27.5293 81.6997 25.1144 79.2848 25.1144 76.3176C25.1144 73.3505 27.5293 70.9356 30.4964 70.9356H108.3C111.267 70.9356 113.682 73.3505 113.682 76.3176C113.682 79.2848 111.267 81.6997 108.3 81.6997ZM30.4964 71.6009C27.8952 71.6009 25.7797 73.7164 25.7797 76.3176C25.7797 78.9189 27.8952 81.0344 30.4964 81.0344H108.3C110.901 81.0344 113.017 78.9189 113.017 76.3176C113.017 73.7164 110.901 71.6009 108.3 71.6009H30.4964Z" fill="#E2E3E4"/>
<path d="M108.3 102.752H30.4964C27.5293 102.752 25.1144 100.337 25.1144 97.3702C25.1144 94.4031 27.5293 91.9882 30.4964 91.9882H108.3C111.267 91.9882 113.682 94.4031 113.682 97.3702C113.682 100.337 111.267 102.752 108.3 102.752ZM30.4964 92.6534C27.8952 92.6534 25.7797 94.769 25.7797 97.3702C25.7797 99.9714 27.8952 102.087 30.4964 102.087H108.3C110.901 102.087 113.017 99.9714 113.017 97.3702C113.017 94.769 110.901 92.6534 108.3 92.6534H30.4964Z" fill="#E2E3E4"/>
<path d="M27.822 46.0211H48.2127C48.6984 46.0211 49.0942 46.4136 49.0942 46.9025C49.0942 47.3882 48.6984 47.784 48.2127 47.784H27.822C27.3364 47.784 26.9406 47.3915 26.9406 46.9025C26.9406 46.4169 27.3364 46.0211 27.822 46.0211Z" fill="#E2E3E4"/>
<path d="M27.822 67.5693H48.2127C48.6984 67.5693 49.0942 67.9618 49.0942 68.4474C49.0942 68.9331 48.6984 69.3289 48.2127 69.3289H27.822C27.3364 69.3289 26.9406 68.9364 26.9406 68.4508C26.9406 67.9651 27.3364 67.5693 27.822 67.5693Z" fill="#E2E3E4"/>
<path d="M27.822 89.1208H48.2127C48.6984 89.1208 49.0942 89.5134 49.0942 90.0023C49.0942 90.488 48.6984 90.8805 48.2127 90.8805H27.822C27.3364 90.8805 26.9406 90.488 26.9406 89.999C26.9406 89.5134 27.3364 89.1208 27.822 89.1208Z" fill="#E2E3E4"/>
<path d="M172.715 72.9946L165.278 75.4428V64.7352H172.027L172.715 72.9946Z" fill="#9F616A"/>
<path d="M166.199 67.699C170.292 67.699 173.61 64.3809 173.61 60.2879C173.61 56.1948 170.292 52.8767 166.199 52.8767C162.106 52.8767 158.788 56.1948 158.788 60.2879C158.788 64.3809 162.106 67.699 166.199 67.699Z" fill="#9F616A"/>
<path d="M168.235 59.5527C166.994 59.5161 166.179 58.2621 165.697 57.1178C165.214 55.9736 164.719 54.6596 163.568 54.1873C162.626 53.8014 160.966 56.4126 160.225 55.7174C159.45 54.9923 160.205 51.2701 161.026 50.6015C161.848 49.9329 162.972 49.8031 164.03 49.7532C166.611 49.6335 169.209 49.8431 171.741 50.3719C173.307 50.6979 174.917 51.1902 176.048 52.3212C177.479 53.7582 177.844 55.9237 177.948 57.9494C178.054 60.0217 177.934 62.1905 176.926 64.0034C175.918 65.8163 173.81 67.1535 171.787 66.6911C171.584 65.5934 171.79 64.4658 171.87 63.3481C171.947 62.2338 171.867 61.0296 171.185 60.1415C170.506 59.2534 169.05 58.9008 168.258 59.6891" fill="#2F2E43"/>
<path d="M177.352 62.1207C178.094 61.5785 178.982 61.1228 179.893 61.2359C180.878 61.3556 181.713 62.1673 181.966 63.1286C182.219 64.0899 181.936 65.1477 181.324 65.9327C180.715 66.7177 179.807 67.2367 178.849 67.4961C178.293 67.6458 177.685 67.709 177.156 67.4828C176.377 67.1468 175.955 66.1523 176.261 65.3606" fill="#2F2E43"/>
<path d="M148.992 131.851C148.496 134.286 149.404 136.512 151.014 136.821C152.624 137.13 154.33 135.404 154.823 132.969C155.032 131.998 154.999 130.993 154.726 130.035L160.857 91.8651L153.189 90.4215L150.229 129.174C149.6 129.959 149.178 130.877 148.992 131.855V131.851Z" fill="#9F616A"/>
<path d="M165.198 70.5298H159.965C156.266 71.0919 155.262 73.0645 154.42 76.7102C153.136 82.2719 151.496 89.6764 151.822 89.7861C152.344 89.9591 161.253 94.1503 165.793 93.1923L165.198 70.5298Z" fill="#E2E3E4"/>
<path d="M170.257 192.112H163.292V201.995H170.257V192.112Z" fill="#9F616A"/>
<path d="M156.509 207.975C155.777 207.975 155.125 207.959 154.633 207.912C152.784 207.743 151.017 206.375 150.129 205.577C149.73 205.218 149.604 204.646 149.81 204.153C149.96 203.801 150.256 203.535 150.625 203.432L155.515 202.035L163.431 196.692L163.521 196.852C163.554 196.912 164.333 198.312 164.592 199.257C164.692 199.616 164.665 199.916 164.516 200.148C164.413 200.308 164.266 200.401 164.15 200.455C164.293 200.604 164.742 200.91 166.126 201.13C168.145 201.449 168.571 199.357 168.587 199.27L168.601 199.2L168.66 199.161C169.622 198.542 170.214 198.259 170.417 198.319C170.543 198.356 170.756 198.422 171.332 204.12C171.388 204.3 171.791 205.61 171.518 206.864C171.222 208.228 165.261 207.759 164.067 207.653C164.033 207.656 159.569 207.975 156.513 207.975H156.509Z" fill="#2F2E43"/>
<path d="M190.091 184.347L184.181 188.033L189.41 196.419L195.321 192.733L190.091 184.347Z" fill="#9F616A"/>
<path d="M182.242 206.622C181.424 206.622 180.672 206.522 180.136 206.429C179.611 206.336 179.198 205.916 179.112 205.391C179.052 205.012 179.162 204.629 179.421 204.346L182.831 200.574L186.723 191.852L186.882 191.939C186.942 191.972 188.343 192.747 189.064 193.413C189.341 193.665 189.477 193.935 189.47 194.211C189.467 194.404 189.394 194.557 189.321 194.667C189.52 194.72 190.062 194.74 191.353 194.194C193.236 193.399 192.491 191.397 192.457 191.314L192.431 191.247L192.461 191.184C192.95 190.149 193.299 189.597 193.505 189.541C193.635 189.504 193.848 189.448 197.35 193.981C197.493 194.101 198.528 195.003 198.96 196.21C199.429 197.524 194.124 200.282 193.056 200.82C193.023 200.847 187.471 204.882 185.189 206.029C184.284 206.485 183.213 206.625 182.239 206.625L182.242 206.622Z" fill="#2F2E43"/>
<path d="M175.386 109.468H155.884L154.114 127.61L161.858 194.643H171.814L167.832 155.928L183.982 190.881L192.83 184.687L180.22 152.056C180.22 152.056 184.724 123.629 181.184 116.547C177.645 109.468 175.386 109.468 175.386 109.468Z" fill="#2F2E43"/>
<path d="M185.089 110.573H154.114L163.408 70.5298H176.903L185.089 110.573Z" fill="#E2E3E4"/>
<path d="M187.877 131.851C188.373 134.286 187.464 136.512 185.854 136.821C184.244 137.13 182.538 135.404 182.046 132.969C181.836 131.998 181.869 130.993 182.142 130.035L176.012 91.8651L183.679 90.4214L186.639 129.174C187.268 129.959 187.691 130.877 187.877 131.855V131.851Z" fill="#9F616A"/>
<path d="M171.671 70.5298H176.903C180.602 71.0919 181.607 73.0645 182.448 76.7102C183.732 82.2719 185.372 89.6764 185.046 89.7861C184.524 89.9591 175.616 94.1503 171.075 93.1923L171.671 70.5298Z" fill="#E2E3E4"/>
</g>
<defs>
<clipPath id="clip0_130_21">
<rect width="250" height="179.431" fill="white" transform="translate(24 29)"/>
</clipPath>
</defs>
</svg>
