<svg width="200" height="227" viewBox="0 0 200 227" fill="none" xmlns="http://www.w3.org/2000/svg">
<g clip-path="url(#clip0_89_394)">
<path d="M76.6796 138.844C77.8161 141.044 77.6025 143.414 76.2024 144.137C74.8023 144.86 72.746 143.663 71.6095 141.463C71.112 140.5 70.8732 139.504 70.8794 138.629L66.1805 129.246L70.6307 127.134L74.7905 136.608C75.5083 137.11 76.1821 137.881 76.6796 138.844Z" fill="#FFB6B6"/>
<path d="M41.7114 223.505L45.7178 223.505L47.6236 208.052L41.7106 208.052L41.7114 223.505Z" fill="#FFB6B6"/>
<path d="M55.4377 223.414C55.5625 223.625 55.6283 224.303 55.6283 224.547C55.6283 225.298 55.0195 225.907 54.2685 225.907H41.8612C41.3489 225.907 40.9336 225.491 40.9336 224.979V224.463C40.9336 224.463 40.3198 222.91 41.5835 220.996C41.5835 220.996 43.1541 222.495 45.5009 220.148L46.1929 218.894L51.2025 222.558L53.9792 222.9C54.5867 222.975 55.1253 222.888 55.4377 223.414Z" fill="#2F2E41"/>
<path d="M22.9158 223.505L26.9221 223.505L28.828 208.052L22.9149 208.052L22.9158 223.505Z" fill="#FFB6B6"/>
<path d="M36.6421 223.414C36.7669 223.625 36.8327 224.303 36.8327 224.547C36.8327 225.298 36.2239 225.907 35.4729 225.907H23.0656C22.5533 225.907 22.138 225.491 22.138 224.979V224.463C22.138 224.463 21.5242 222.91 22.7879 220.996C22.7879 220.996 24.3584 222.495 26.7053 220.148L27.3973 218.894L32.4069 222.558L35.1836 222.9C35.791 222.975 36.3296 222.888 36.6421 223.414Z" fill="#2F2E41"/>
<path d="M17.2448 132.328L15.557 142.642L20.8079 176.023L22.1206 216.342H29.2099L32.8099 178.273L32.4349 153.144L40.8738 216.717H48.2407L48.9376 137.016L17.2448 132.328Z" fill="#2F2E41"/>
<path d="M26.0588 78.8812H39.3307L50.813 85.6324C49.0259 85.1781 47.6453 101.758 47.5983 116.408C47.5952 117.381 46.6306 118.5 46.6395 119.451C46.6472 120.27 47.6269 120.925 47.6439 121.72C47.6598 122.462 47.6798 123.193 47.7042 123.908C47.7244 124.502 46.6133 125.289 46.6395 125.86C46.673 126.59 47.8456 127.097 47.8892 127.784C48.1569 132.007 48.6183 135.353 49.3127 137.016C49.3127 137.016 19.6827 145.267 17.4323 132.515C17.4323 132.515 17.5608 127.932 17.5428 121.602C17.5412 121.041 17.0629 120.531 17.0588 119.944C17.0558 119.508 17.5275 118.999 17.5229 118.55C17.5191 118.181 17.0638 117.855 17.0588 117.479C17.0559 117.255 17.5037 116.983 17.5003 116.756C17.3204 104.72 16.5122 89.5515 13.6817 85.6324L26.0588 78.8812Z" fill="#2C305E"/>
<path d="M39.186 78.8812C39.186 78.8812 47.786 82.0065 50.5149 84.4962C51.9649 85.8192 61.6898 110.762 61.6898 110.762L75.1973 134.285L68.1761 136.952L53.8135 115.262L47.4374 101.01L39.186 78.8812Z" fill="#2C305E"/>
<path d="M21.348 139.734C22.6024 141.869 22.5177 144.247 21.159 145.045C19.8002 145.844 17.6819 144.76 16.4276 142.625C15.8785 141.69 15.5861 140.709 15.5447 139.834L10.3433 130.72L14.6722 128.37L19.3404 137.604C20.0843 138.066 20.799 138.799 21.348 139.734Z" fill="#FFB6B6"/>
<path d="M24.1835 90.5082L20.4328 81.8817C20.4328 81.8817 11.6188 84.6947 11.6188 88.8204C11.6188 88.8204 6.36796 120.326 7.11808 128.202L11.9939 136.829L18.9326 131.39L14.6194 121.451L24.1835 90.5082Z" fill="#2C305E"/>
<path d="M16.4699 146.552L20.894 137.766L26.0588 144.892L21.4105 149.393L16.4699 146.552Z" fill="#2F2E41"/>
<path d="M32.5697 76.403C37.3103 76.403 41.1533 72.56 41.1533 67.8194C41.1533 63.0788 37.3103 59.2358 32.5697 59.2358C27.8291 59.2358 23.9861 63.0788 23.9861 67.8194C23.9861 72.56 27.8291 76.403 32.5697 76.403Z" fill="#FFB6B6"/>
<path d="M39.2631 58.2308C37.7714 57.753 37.0656 55.9787 35.7012 55.2096C34.1922 54.359 32.3871 53.8281 30.7231 54.3093C29.7021 54.6046 28.8127 55.2573 27.791 55.5501C27.6124 55.6013 27.4245 55.6366 27.2337 55.6547C26.1349 55.7594 25.1916 56.4183 24.6425 57.3758L24.6282 57.4005C24.3058 57.9522 23.8476 58.4091 23.4409 58.9019C21.9569 60.7002 21.1537 63.0373 21.1702 65.3688C21.188 67.875 22.1523 70.3633 23.8281 72.2269L24.2562 72.0295C25.2907 72.9231 26.3252 73.8167 27.3597 74.7103C26.7967 72.6789 26.2285 70.5763 26.5265 68.4896C26.8246 66.4027 28.2279 64.3208 30.297 63.9179C31.0798 63.7655 31.9053 63.8576 32.6651 63.6156C33.425 63.3737 34.1248 62.5925 33.8642 61.8388C34.3347 63.0827 36.0896 63.0092 37.2974 63.5657C40.0008 64.8113 39.0112 62.8864 41.358 64.7174C42.1506 60.3242 45.187 60.1281 39.2631 58.2308Z" fill="#2F2E41"/>
<path d="M0 225.61C0 225.935 0.261311 226.197 0.586713 226.197H199.413C199.739 226.197 200 225.935 200 225.61C200 225.284 199.739 225.023 199.413 225.023H0.586713C0.261311 225.023 0 225.284 0 225.61Z" fill="#CCCCCC"/>
<path d="M173.403 226.197H86.4234C75.8178 226.197 67.1894 217.568 67.1894 206.962V20.0375C67.1894 9.43184 75.8178 0.803436 86.4234 0.803436H173.403C184.008 0.803436 192.637 9.43184 192.637 20.0375V206.962C192.637 217.568 184.008 226.197 173.403 226.197Z" fill="#3F3D56"/>
<path d="M192.637 69.5605C192.188 69.5605 191.823 69.9255 191.823 70.3742V96.4124C191.823 96.8612 192.188 97.2261 192.637 97.2261C193.086 97.2261 193.45 96.8612 193.45 96.4124V70.3742C193.45 69.9255 193.086 69.5605 192.637 69.5605Z" fill="#3F3D56"/>
<path d="M190.806 20.0376V206.959C190.806 216.19 183.621 223.742 174.536 224.327H174.532C174.398 224.336 174.264 224.344 174.125 224.348C173.885 224.36 173.645 224.364 173.401 224.364C173.401 224.364 172.506 224.299 170.871 224.177C169.219 224.055 166.814 223.872 163.816 223.632C162.917 223.563 161.969 223.485 160.968 223.404C158.974 223.241 156.786 223.062 154.438 222.859C153.502 222.781 152.534 222.696 151.545 222.611C146.492 222.175 140.833 221.667 134.865 221.089C133.856 220.995 132.839 220.898 131.813 220.796C131.545 220.767 131.272 220.743 131 220.715C126.744 220.296 69.0204 209.14 69.0204 206.959V20.0376C69.0204 10.4238 76.8115 2.63272 86.4253 2.63272H96.8161C98.4761 2.63272 99.8105 3.92649 99.9529 5.58236C99.9651 5.69222 99.9773 5.80205 99.9977 5.9119C100.299 7.57592 101.824 8.73542 103.517 8.73542H156.31C158.002 8.73542 159.528 7.57592 159.829 5.9119C159.849 5.80205 159.861 5.69222 159.874 5.58236C160.016 3.92649 161.35 2.63272 163.01 2.63272H173.401C183.015 2.63272 190.806 10.4238 190.806 20.0376Z" fill="white"/>
<path d="M66.7826 50.0319C66.3339 50.0319 65.9689 50.3969 65.9689 50.8456V57.3552C65.9689 57.8039 66.3339 58.1688 66.7826 58.1688C67.2314 58.1688 67.5963 57.8039 67.5963 57.3552V50.8456C67.5963 50.3968 67.2314 50.0319 66.7826 50.0319Z" fill="#3F3D56"/>
<path d="M66.7826 69.5605C66.3339 69.5605 65.9689 69.9255 65.9689 70.3742V82.9865C65.9689 83.4352 66.3339 83.8002 66.7826 83.8002C67.2314 83.8002 67.5963 83.4352 67.5963 82.9865V70.3742C67.5963 69.9255 67.2314 69.5605 66.7826 69.5605Z" fill="#3F3D56"/>
<path d="M66.7826 87.4618C66.3339 87.4618 65.9689 87.8267 65.9689 88.2755V100.888C65.9689 101.336 66.3339 101.701 66.7826 101.701C67.2314 101.701 67.5963 101.336 67.5963 100.888V88.2755C67.5963 87.8267 67.2314 87.4618 66.7826 87.4618Z" fill="#3F3D56"/>
<path d="M96.5329 5.48223H80.9718C80.8873 5.48223 80.8188 5.5507 80.8188 5.63517V7.36353C80.8188 7.44799 80.8873 7.51647 80.9718 7.51647H96.5329C96.6174 7.51647 96.6858 7.44799 96.6858 7.36353V5.63517C96.6858 5.5507 96.6174 5.48223 96.5329 5.48223Z" fill="#E6E6E6"/>
<path d="M165.581 7.51647C166.48 7.51647 167.209 6.78786 167.209 5.88908C167.209 4.9903 166.48 4.2617 165.581 4.2617C164.683 4.2617 163.954 4.9903 163.954 5.88908C163.954 6.78786 164.683 7.51647 165.581 7.51647Z" fill="#E6E6E6"/>
<path d="M170.057 7.51647C170.956 7.51647 171.684 6.78786 171.684 5.88908C171.684 4.9903 170.956 4.2617 170.057 4.2617C169.158 4.2617 168.429 4.9903 168.429 5.88908C168.429 6.78786 169.158 7.51647 170.057 7.51647Z" fill="#E6E6E6"/>
<path d="M174.532 7.51647C175.431 7.51647 176.159 6.78786 176.159 5.88908C176.159 4.9903 175.431 4.2617 174.532 4.2617C173.633 4.2617 172.905 4.9903 172.905 5.88908C172.905 6.78786 173.633 7.51647 174.532 7.51647Z" fill="#E6E6E6"/>
<path d="M164.424 47.7179H95.4024C94.315 47.7179 93.4304 46.8332 93.4304 45.7458C93.4304 44.6585 94.315 43.7738 95.4024 43.7738H164.424C165.511 43.7738 166.396 44.6585 166.396 45.7458C166.396 46.8332 165.511 47.7179 164.424 47.7179Z" fill="#E6E6E6"/>
<path d="M176.03 203.756H150.393C149.306 203.756 148.421 202.871 148.421 201.784C148.421 200.697 149.306 199.812 150.393 199.812H176.03C177.117 199.812 178.002 200.697 178.002 201.784C178.002 202.871 177.117 203.756 176.03 203.756Z" fill="#E6E6E6"/>
<path d="M107.501 203.756H81.8645C80.7771 203.756 79.8924 202.871 79.8924 201.784C79.8924 200.697 80.7771 199.812 81.8645 199.812H107.501C108.588 199.812 109.473 200.697 109.473 201.784C109.473 202.871 108.588 203.756 107.501 203.756Z" fill="#E6E6E6"/>
<path d="M178.002 53.0168H81.8246V53.5098H178.002V53.0168Z" fill="#3F3D56"/>
<path d="M164.424 77.7916H95.4024C94.315 77.7916 93.4304 76.9069 93.4304 75.8196C93.4304 74.7322 94.315 73.8475 95.4024 73.8475H164.424C165.511 73.8475 166.396 74.7322 166.396 75.8196C166.396 76.9069 165.511 77.7916 164.424 77.7916Z" fill="#E6E6E6"/>
<path d="M178.002 83.0905H81.8246V83.5835H178.002V83.0905Z" fill="#3F3D56"/>
<path d="M164.424 107.865H95.4024C94.315 107.865 93.4304 106.981 93.4304 105.893C93.4304 104.806 94.315 103.921 95.4024 103.921H164.424C165.511 103.921 166.396 104.806 166.396 105.893C166.396 106.981 165.511 107.865 164.424 107.865Z" fill="#E6E6E6"/>
<path d="M178.002 113.164H81.8246V113.657H178.002V113.164Z" fill="#3F3D56"/>
<path d="M178.002 138.801H81.8246V139.294H178.002V138.801Z" fill="#3F3D56"/>
<path d="M178.002 164.437H81.8246V164.93H178.002V164.437Z" fill="#3F3D56"/>
<path d="M130.59 182.471C146.382 182.471 159.185 169.669 159.185 153.876C159.185 138.084 146.382 125.282 130.59 125.282C114.798 125.282 101.995 138.084 101.995 153.876C101.995 169.669 114.798 182.471 130.59 182.471Z" fill="#2C305E"/>
</g>
<defs>
<clipPath id="clip0_89_394">
<rect width="200" height="225.393" fill="white" transform="translate(0 0.803436)"/>
</clipPath>
</defs>
</svg>
